<mxfile host="Electron" agent="Mozilla/5.0 (Macintosh; Intel Mac OS X 10_15_7) AppleWebKit/537.36 (KHTML, like Gecko) draw.io/26.1.1 Chrome/132.0.6834.210 Electron/34.3.3 Safari/537.36" version="26.1.1" pages="2">
  <diagram id="SPqARd7VIHGESREF2pGx" name="Scheduler">
    <mxGraphModel dx="10513" dy="4447" grid="0" gridSize="10" guides="1" tooltips="1" connect="1" arrows="1" fold="1" page="0" pageScale="1" pageWidth="827" pageHeight="1169" background="none" math="1" shadow="0">
      <root>
        <mxCell id="0" />
        <mxCell id="1" parent="0" />
        <mxCell id="OR6rUnb_s0b04Rcv2Hfu-225" value="" style="ellipse;whiteSpace=wrap;html=1;aspect=fixed;rounded=1;shadow=0;glass=0;sketch=1;fontFamily=Comic Sans MS;fontSize=12;strokeWidth=2;fillColor=none;gradientColor=none;align=left;verticalAlign=middle;" parent="1" vertex="1">
          <mxGeometry x="-1313.5" y="852.5" width="335" height="335" as="geometry" />
        </mxCell>
        <mxCell id="OR6rUnb_s0b04Rcv2Hfu-168" style="edgeStyle=orthogonalEdgeStyle;curved=1;sketch=1;orthogonalLoop=1;jettySize=auto;html=1;entryX=0.5;entryY=0;entryDx=0;entryDy=0;shadow=0;fontFamily=Comic Sans MS;fontSize=12;strokeColor=#000000;strokeWidth=2;" parent="1" source="OR6rUnb_s0b04Rcv2Hfu-140" target="OR6rUnb_s0b04Rcv2Hfu-164" edge="1">
          <mxGeometry relative="1" as="geometry" />
        </mxCell>
        <mxCell id="OR6rUnb_s0b04Rcv2Hfu-140" value="&lt;b&gt;Queue&lt;/b&gt;" style="rounded=1;whiteSpace=wrap;html=1;shadow=0;glass=0;sketch=1;fontFamily=Comic Sans MS;fontSize=18;strokeWidth=2;fillColor=#ffffff;gradientColor=none;verticalAlign=top;labelPosition=center;verticalLabelPosition=middle;align=center;movable=1;resizable=1;rotatable=1;deletable=1;editable=1;connectable=1;" parent="1" vertex="1">
          <mxGeometry x="-1740" y="-110" width="670" height="310" as="geometry" />
        </mxCell>
        <mxCell id="OR6rUnb_s0b04Rcv2Hfu-21" value="&lt;h2&gt;&lt;span style=&quot;color: rgb(0 , 0 , 0) ; font-family: &amp;#34;comic sans ms&amp;#34;&quot;&gt;Tree (二叉树形式)&lt;/span&gt;&lt;br&gt;&lt;/h2&gt;" style="whiteSpace=wrap;html=1;sketch=1;fillColor=#f5f5f5;strokeColor=#666666;fontColor=#333333;rounded=1;strokeWidth=2;verticalAlign=bottom;labelPosition=center;verticalLabelPosition=top;align=center;shadow=0;movable=0;resizable=0;rotatable=0;deletable=0;editable=0;connectable=0;" parent="1" vertex="1">
          <mxGeometry x="20" y="330" width="610" height="380" as="geometry" />
        </mxCell>
        <mxCell id="OR6rUnb_s0b04Rcv2Hfu-24" style="edgeStyle=orthogonalEdgeStyle;curved=1;rounded=0;sketch=1;orthogonalLoop=1;jettySize=auto;html=1;shadow=0;fontFamily=Comic Sans MS;fontSize=18;strokeWidth=2;" parent="1" source="OR6rUnb_s0b04Rcv2Hfu-1" edge="1">
          <mxGeometry relative="1" as="geometry">
            <mxPoint x="324.99999999999955" y="280" as="targetPoint" />
          </mxGeometry>
        </mxCell>
        <mxCell id="OR6rUnb_s0b04Rcv2Hfu-1" value="&lt;h2&gt;&lt;b&gt;&lt;font face=&quot;Comic Sans MS&quot;&gt;Array (数组中存储位置)&lt;/font&gt;&lt;/b&gt;&lt;/h2&gt;" style="whiteSpace=wrap;html=1;sketch=1;fillColor=#f5f5f5;strokeColor=#666666;fontColor=#333333;rounded=1;strokeWidth=2;verticalAlign=bottom;labelPosition=center;verticalLabelPosition=top;align=center;shadow=0;" parent="1" vertex="1">
          <mxGeometry x="20" y="130" width="610" height="80" as="geometry" />
        </mxCell>
        <mxCell id="OR6rUnb_s0b04Rcv2Hfu-2" value="&lt;font face=&quot;Comic Sans MS&quot; style=&quot;font-size: 22px&quot;&gt;&lt;b&gt;0&lt;/b&gt;&lt;/font&gt;" style="ellipse;whiteSpace=wrap;html=1;aspect=fixed;sketch=1;fillColor=#dae8fc;strokeColor=#6c8ebf;rounded=1;shadow=0;" parent="1" vertex="1">
          <mxGeometry x="43" y="142.75" width="52.5" height="52.5" as="geometry" />
        </mxCell>
        <mxCell id="OR6rUnb_s0b04Rcv2Hfu-5" value="&lt;font face=&quot;Comic Sans MS&quot; style=&quot;font-size: 22px&quot;&gt;&lt;b&gt;1&lt;/b&gt;&lt;/font&gt;" style="ellipse;whiteSpace=wrap;html=1;aspect=fixed;sketch=1;fillColor=#dae8fc;strokeColor=#6c8ebf;rounded=1;shadow=0;" parent="1" vertex="1">
          <mxGeometry x="127" y="142.75" width="52.5" height="52.5" as="geometry" />
        </mxCell>
        <mxCell id="OR6rUnb_s0b04Rcv2Hfu-6" value="&lt;font face=&quot;Comic Sans MS&quot; style=&quot;font-size: 22px&quot;&gt;&lt;b&gt;2&lt;/b&gt;&lt;/font&gt;" style="ellipse;whiteSpace=wrap;html=1;aspect=fixed;sketch=1;fillColor=#dae8fc;strokeColor=#6c8ebf;rounded=1;shadow=0;" parent="1" vertex="1">
          <mxGeometry x="210" y="142.75" width="52.5" height="52.5" as="geometry" />
        </mxCell>
        <mxCell id="OR6rUnb_s0b04Rcv2Hfu-7" value="&lt;font face=&quot;Comic Sans MS&quot; style=&quot;font-size: 22px&quot;&gt;&lt;b&gt;3&lt;/b&gt;&lt;/font&gt;" style="ellipse;whiteSpace=wrap;html=1;aspect=fixed;sketch=1;fillColor=#dae8fc;strokeColor=#6c8ebf;rounded=1;shadow=0;" parent="1" vertex="1">
          <mxGeometry x="294" y="142.75" width="52.5" height="52.5" as="geometry" />
        </mxCell>
        <mxCell id="OR6rUnb_s0b04Rcv2Hfu-8" value="&lt;font face=&quot;Comic Sans MS&quot; style=&quot;font-size: 22px&quot;&gt;&lt;b&gt;5&lt;/b&gt;&lt;/font&gt;" style="ellipse;whiteSpace=wrap;html=1;aspect=fixed;sketch=1;fillColor=#dae8fc;strokeColor=#6c8ebf;rounded=1;shadow=0;" parent="1" vertex="1">
          <mxGeometry x="378" y="142.75" width="52.5" height="52.5" as="geometry" />
        </mxCell>
        <mxCell id="OR6rUnb_s0b04Rcv2Hfu-9" value="&lt;font face=&quot;Comic Sans MS&quot; style=&quot;font-size: 22px&quot;&gt;&lt;b&gt;6&lt;/b&gt;&lt;/font&gt;" style="ellipse;whiteSpace=wrap;html=1;aspect=fixed;sketch=1;fillColor=#dae8fc;strokeColor=#6c8ebf;rounded=1;shadow=0;" parent="1" vertex="1">
          <mxGeometry x="462" y="142.75" width="52.5" height="52.5" as="geometry" />
        </mxCell>
        <mxCell id="OR6rUnb_s0b04Rcv2Hfu-10" value="&lt;font face=&quot;Comic Sans MS&quot; style=&quot;font-size: 22px&quot;&gt;&lt;b&gt;7&lt;/b&gt;&lt;/font&gt;" style="ellipse;whiteSpace=wrap;html=1;aspect=fixed;sketch=1;fillColor=#dae8fc;strokeColor=#6c8ebf;rounded=1;shadow=0;" parent="1" vertex="1">
          <mxGeometry x="545.5" y="142.75" width="52.5" height="52.5" as="geometry" />
        </mxCell>
        <mxCell id="OR6rUnb_s0b04Rcv2Hfu-26" style="edgeStyle=orthogonalEdgeStyle;curved=1;rounded=0;sketch=1;orthogonalLoop=1;jettySize=auto;html=1;entryX=0.5;entryY=0;entryDx=0;entryDy=0;shadow=0;fontFamily=Comic Sans MS;fontSize=18;strokeWidth=2;" parent="1" source="OR6rUnb_s0b04Rcv2Hfu-12" target="OR6rUnb_s0b04Rcv2Hfu-13" edge="1">
          <mxGeometry relative="1" as="geometry" />
        </mxCell>
        <mxCell id="OR6rUnb_s0b04Rcv2Hfu-29" style="edgeStyle=orthogonalEdgeStyle;curved=1;rounded=0;sketch=1;orthogonalLoop=1;jettySize=auto;html=1;shadow=0;fontFamily=Comic Sans MS;fontSize=18;strokeWidth=2;" parent="1" source="OR6rUnb_s0b04Rcv2Hfu-12" target="OR6rUnb_s0b04Rcv2Hfu-14" edge="1">
          <mxGeometry relative="1" as="geometry" />
        </mxCell>
        <mxCell id="OR6rUnb_s0b04Rcv2Hfu-12" value="&lt;font face=&quot;Comic Sans MS&quot; style=&quot;font-size: 22px&quot;&gt;&lt;b&gt;0&lt;/b&gt;&lt;/font&gt;" style="ellipse;whiteSpace=wrap;html=1;aspect=fixed;sketch=1;fillColor=#f8cecc;strokeColor=#b85450;rounded=1;shadow=0;" parent="1" vertex="1">
          <mxGeometry x="290" y="350" width="52.5" height="52.5" as="geometry" />
        </mxCell>
        <mxCell id="OR6rUnb_s0b04Rcv2Hfu-30" style="edgeStyle=orthogonalEdgeStyle;curved=1;rounded=0;sketch=1;orthogonalLoop=1;jettySize=auto;html=1;entryX=0.5;entryY=0;entryDx=0;entryDy=0;shadow=0;fontFamily=Comic Sans MS;fontSize=18;strokeWidth=2;" parent="1" source="OR6rUnb_s0b04Rcv2Hfu-13" target="OR6rUnb_s0b04Rcv2Hfu-15" edge="1">
          <mxGeometry relative="1" as="geometry" />
        </mxCell>
        <mxCell id="OR6rUnb_s0b04Rcv2Hfu-31" style="edgeStyle=orthogonalEdgeStyle;curved=1;rounded=0;sketch=1;orthogonalLoop=1;jettySize=auto;html=1;entryX=0.5;entryY=0;entryDx=0;entryDy=0;shadow=0;fontFamily=Comic Sans MS;fontSize=18;strokeWidth=2;" parent="1" source="OR6rUnb_s0b04Rcv2Hfu-13" target="OR6rUnb_s0b04Rcv2Hfu-16" edge="1">
          <mxGeometry relative="1" as="geometry" />
        </mxCell>
        <mxCell id="OR6rUnb_s0b04Rcv2Hfu-13" value="&lt;font face=&quot;Comic Sans MS&quot; style=&quot;font-size: 22px&quot;&gt;&lt;b&gt;1&lt;/b&gt;&lt;/font&gt;" style="ellipse;whiteSpace=wrap;html=1;aspect=fixed;sketch=1;fillColor=#f8cecc;strokeColor=#b85450;rounded=1;shadow=0;" parent="1" vertex="1">
          <mxGeometry x="190" y="450" width="52.5" height="52.5" as="geometry" />
        </mxCell>
        <mxCell id="OR6rUnb_s0b04Rcv2Hfu-33" style="edgeStyle=orthogonalEdgeStyle;curved=1;rounded=0;sketch=1;orthogonalLoop=1;jettySize=auto;html=1;entryX=0.5;entryY=0;entryDx=0;entryDy=0;shadow=0;fontFamily=Comic Sans MS;fontSize=18;strokeWidth=2;" parent="1" source="OR6rUnb_s0b04Rcv2Hfu-14" target="OR6rUnb_s0b04Rcv2Hfu-17" edge="1">
          <mxGeometry relative="1" as="geometry" />
        </mxCell>
        <mxCell id="OR6rUnb_s0b04Rcv2Hfu-34" style="edgeStyle=orthogonalEdgeStyle;curved=1;rounded=0;sketch=1;orthogonalLoop=1;jettySize=auto;html=1;shadow=0;fontFamily=Comic Sans MS;fontSize=18;strokeWidth=2;" parent="1" source="OR6rUnb_s0b04Rcv2Hfu-14" target="OR6rUnb_s0b04Rcv2Hfu-18" edge="1">
          <mxGeometry relative="1" as="geometry" />
        </mxCell>
        <mxCell id="OR6rUnb_s0b04Rcv2Hfu-14" value="&lt;font face=&quot;Comic Sans MS&quot; style=&quot;font-size: 22px&quot;&gt;&lt;b&gt;2&lt;/b&gt;&lt;/font&gt;" style="ellipse;whiteSpace=wrap;html=1;aspect=fixed;sketch=1;fillColor=#f8cecc;strokeColor=#b85450;rounded=1;shadow=0;" parent="1" vertex="1">
          <mxGeometry x="397.5" y="450" width="52.5" height="52.5" as="geometry" />
        </mxCell>
        <mxCell id="OR6rUnb_s0b04Rcv2Hfu-15" value="&lt;font face=&quot;Comic Sans MS&quot; style=&quot;font-size: 22px&quot;&gt;&lt;b&gt;3&lt;/b&gt;&lt;/font&gt;" style="ellipse;whiteSpace=wrap;html=1;aspect=fixed;sketch=1;fillColor=#f8cecc;strokeColor=#b85450;rounded=1;shadow=0;" parent="1" vertex="1">
          <mxGeometry x="120" y="577.5" width="52.5" height="52.5" as="geometry" />
        </mxCell>
        <mxCell id="OR6rUnb_s0b04Rcv2Hfu-16" value="&lt;font face=&quot;Comic Sans MS&quot; style=&quot;font-size: 22px&quot;&gt;&lt;b&gt;5&lt;/b&gt;&lt;/font&gt;" style="ellipse;whiteSpace=wrap;html=1;aspect=fixed;sketch=1;fillColor=#f8cecc;strokeColor=#b85450;rounded=1;shadow=0;" parent="1" vertex="1">
          <mxGeometry x="250" y="577.5" width="52.5" height="52.5" as="geometry" />
        </mxCell>
        <mxCell id="OR6rUnb_s0b04Rcv2Hfu-17" value="&lt;font face=&quot;Comic Sans MS&quot; style=&quot;font-size: 22px&quot;&gt;&lt;b&gt;6&lt;/b&gt;&lt;/font&gt;" style="ellipse;whiteSpace=wrap;html=1;aspect=fixed;sketch=1;fillColor=#f8cecc;strokeColor=#b85450;rounded=1;shadow=0;" parent="1" vertex="1">
          <mxGeometry x="330" y="577.5" width="52.5" height="52.5" as="geometry" />
        </mxCell>
        <mxCell id="OR6rUnb_s0b04Rcv2Hfu-18" value="&lt;font face=&quot;Comic Sans MS&quot; style=&quot;font-size: 22px&quot;&gt;&lt;b&gt;7&lt;/b&gt;&lt;/font&gt;" style="ellipse;whiteSpace=wrap;html=1;aspect=fixed;sketch=1;fillColor=#f8cecc;strokeColor=#b85450;rounded=1;shadow=0;" parent="1" vertex="1">
          <mxGeometry x="462" y="577.5" width="52.5" height="52.5" as="geometry" />
        </mxCell>
        <mxCell id="OR6rUnb_s0b04Rcv2Hfu-44" style="edgeStyle=orthogonalEdgeStyle;curved=1;rounded=0;sketch=1;orthogonalLoop=1;jettySize=auto;html=1;shadow=0;fontFamily=Comic Sans MS;fontSize=18;strokeWidth=2;" parent="1" source="OR6rUnb_s0b04Rcv2Hfu-37" target="OR6rUnb_s0b04Rcv2Hfu-38" edge="1">
          <mxGeometry relative="1" as="geometry" />
        </mxCell>
        <mxCell id="OR6rUnb_s0b04Rcv2Hfu-46" value="push" style="edgeLabel;html=1;align=center;verticalAlign=middle;resizable=0;points=[];fontSize=18;fontFamily=Comic Sans MS;" parent="OR6rUnb_s0b04Rcv2Hfu-44" vertex="1" connectable="0">
          <mxGeometry x="-0.3714" y="-3" relative="1" as="geometry">
            <mxPoint x="8" y="-3" as="offset" />
          </mxGeometry>
        </mxCell>
        <mxCell id="OR6rUnb_s0b04Rcv2Hfu-37" value="Schedule" style="rounded=1;whiteSpace=wrap;html=1;shadow=0;sketch=1;fontFamily=Comic Sans MS;fontSize=18;strokeWidth=2;verticalAlign=middle;strokeColor=#82b366;fillColor=#d5e8d4;glass=0;" parent="1" vertex="1">
          <mxGeometry x="-3531" y="115" width="120" height="50" as="geometry" />
        </mxCell>
        <mxCell id="OR6rUnb_s0b04Rcv2Hfu-66" style="edgeStyle=orthogonalEdgeStyle;curved=1;sketch=1;orthogonalLoop=1;jettySize=auto;html=1;shadow=0;fontFamily=Comic Sans MS;fontSize=18;strokeColor=#000000;strokeWidth=2;" parent="1" source="OR6rUnb_s0b04Rcv2Hfu-38" edge="1">
          <mxGeometry relative="1" as="geometry">
            <mxPoint x="-2910" y="140" as="targetPoint" />
          </mxGeometry>
        </mxCell>
        <mxCell id="OR6rUnb_s0b04Rcv2Hfu-38" value="taskQueue" style="rounded=1;whiteSpace=wrap;html=1;shadow=0;glass=0;sketch=1;fontFamily=Comic Sans MS;fontSize=18;strokeWidth=2;fillColor=#ffffff;gradientColor=none;verticalAlign=top;labelPosition=center;verticalLabelPosition=middle;align=center;movable=1;resizable=1;rotatable=1;deletable=1;editable=1;connectable=1;" parent="1" vertex="1">
          <mxGeometry x="-3320" y="90" width="320" height="100" as="geometry" />
        </mxCell>
        <mxCell id="OR6rUnb_s0b04Rcv2Hfu-40" value="task1" style="rounded=1;whiteSpace=wrap;html=1;shadow=0;sketch=1;fontFamily=Comic Sans MS;fontSize=18;strokeWidth=2;verticalAlign=middle;strokeColor=#6c8ebf;fillColor=#dae8fc;glass=0;" parent="1" vertex="1">
          <mxGeometry x="-3300" y="125" width="80" height="50" as="geometry" />
        </mxCell>
        <mxCell id="OR6rUnb_s0b04Rcv2Hfu-42" value="task2" style="rounded=1;whiteSpace=wrap;html=1;shadow=0;sketch=1;fontFamily=Comic Sans MS;fontSize=18;strokeWidth=2;verticalAlign=middle;strokeColor=#6c8ebf;fillColor=#dae8fc;glass=0;" parent="1" vertex="1">
          <mxGeometry x="-3200" y="125" width="80" height="50" as="geometry" />
        </mxCell>
        <mxCell id="OR6rUnb_s0b04Rcv2Hfu-43" value="task3" style="rounded=1;whiteSpace=wrap;html=1;shadow=0;sketch=1;fontFamily=Comic Sans MS;fontSize=18;strokeWidth=2;verticalAlign=middle;strokeColor=#6c8ebf;fillColor=#dae8fc;glass=0;" parent="1" vertex="1">
          <mxGeometry x="-3100" y="125" width="80" height="50" as="geometry" />
        </mxCell>
        <mxCell id="OR6rUnb_s0b04Rcv2Hfu-65" value="" style="group;rotation=0;" parent="1" vertex="1" connectable="0">
          <mxGeometry x="-2904" y="60" width="167" height="160" as="geometry" />
        </mxCell>
        <mxCell id="OR6rUnb_s0b04Rcv2Hfu-52" value="workLoop" style="ellipse;whiteSpace=wrap;html=1;aspect=fixed;rounded=1;shadow=0;glass=0;sketch=1;fontFamily=Comic Sans MS;fontSize=18;strokeWidth=2;fillColor=#ffffff;gradientColor=none;verticalAlign=top;" parent="OR6rUnb_s0b04Rcv2Hfu-65" vertex="1">
          <mxGeometry x="3" width="160" height="160" as="geometry" />
        </mxCell>
        <mxCell id="OR6rUnb_s0b04Rcv2Hfu-58" value="" style="endArrow=classic;html=1;shadow=0;fontFamily=Comic Sans MS;fontSize=18;strokeWidth=2;sketch=1;entryX=1.006;entryY=0.686;entryDx=0;entryDy=0;entryPerimeter=0;" parent="OR6rUnb_s0b04Rcv2Hfu-65" edge="1">
          <mxGeometry x="85" y="40" width="50" height="50" as="geometry">
            <mxPoint x="167" y="73.75999999999999" as="sourcePoint" />
            <mxPoint x="167.4799999999998" y="91.88000000000011" as="targetPoint" />
            <Array as="points">
              <mxPoint x="167" y="74" />
            </Array>
          </mxGeometry>
        </mxCell>
        <mxCell id="OR6rUnb_s0b04Rcv2Hfu-59" value="" style="endArrow=classic;html=1;shadow=0;fontFamily=Comic Sans MS;fontSize=18;strokeWidth=2;sketch=1;entryX=1.006;entryY=0.686;entryDx=0;entryDy=0;entryPerimeter=0;" parent="OR6rUnb_s0b04Rcv2Hfu-65" edge="1">
          <mxGeometry y="41" width="50" height="50" as="geometry">
            <mxPoint x="0.4799999999997908" y="87.88000000000011" as="sourcePoint" />
            <mxPoint y="69.75999999999999" as="targetPoint" />
            <Array as="points">
              <mxPoint y="70" />
            </Array>
          </mxGeometry>
        </mxCell>
        <mxCell id="OR6rUnb_s0b04Rcv2Hfu-67" value="execute" style="rounded=1;whiteSpace=wrap;html=1;shadow=0;sketch=1;fontFamily=Comic Sans MS;fontSize=12;strokeWidth=2;verticalAlign=middle;strokeColor=#82b366;fillColor=#d5e8d4;glass=0;align=center;labelBorderColor=none;" parent="OR6rUnb_s0b04Rcv2Hfu-65" vertex="1">
          <mxGeometry x="20.25" y="90" width="126.5" height="30" as="geometry" />
        </mxCell>
        <mxCell id="OR6rUnb_s0b04Rcv2Hfu-70" style="edgeStyle=orthogonalEdgeStyle;curved=1;sketch=1;orthogonalLoop=1;jettySize=auto;html=1;entryX=0.5;entryY=0;entryDx=0;entryDy=0;shadow=0;fontFamily=Comic Sans MS;fontSize=12;strokeColor=#000000;strokeWidth=2;" parent="OR6rUnb_s0b04Rcv2Hfu-65" source="OR6rUnb_s0b04Rcv2Hfu-69" target="OR6rUnb_s0b04Rcv2Hfu-67" edge="1">
          <mxGeometry relative="1" as="geometry" />
        </mxCell>
        <mxCell id="OR6rUnb_s0b04Rcv2Hfu-71" value="" style="edgeStyle=orthogonalEdgeStyle;curved=1;sketch=1;orthogonalLoop=1;jettySize=auto;html=1;shadow=0;fontFamily=Comic Sans MS;fontSize=12;strokeColor=#000000;strokeWidth=2;" parent="OR6rUnb_s0b04Rcv2Hfu-65" source="OR6rUnb_s0b04Rcv2Hfu-69" target="OR6rUnb_s0b04Rcv2Hfu-67" edge="1">
          <mxGeometry relative="1" as="geometry" />
        </mxCell>
        <mxCell id="OR6rUnb_s0b04Rcv2Hfu-69" value="peek(取出最高优任务)" style="rounded=1;whiteSpace=wrap;html=1;shadow=0;sketch=1;fontFamily=Comic Sans MS;fontSize=12;strokeWidth=2;verticalAlign=middle;strokeColor=#82b366;fillColor=#d5e8d4;glass=0;" parent="OR6rUnb_s0b04Rcv2Hfu-65" vertex="1">
          <mxGeometry x="20.25" y="40" width="126.5" height="30" as="geometry" />
        </mxCell>
        <mxCell id="OR6rUnb_s0b04Rcv2Hfu-72" style="edgeStyle=orthogonalEdgeStyle;curved=1;rounded=0;sketch=1;orthogonalLoop=1;jettySize=auto;html=1;shadow=0;fontFamily=Comic Sans MS;fontSize=18;strokeWidth=2;" parent="1" source="OR6rUnb_s0b04Rcv2Hfu-74" target="OR6rUnb_s0b04Rcv2Hfu-76" edge="1">
          <mxGeometry relative="1" as="geometry" />
        </mxCell>
        <mxCell id="OR6rUnb_s0b04Rcv2Hfu-73" value="push" style="edgeLabel;html=1;align=center;verticalAlign=middle;resizable=0;points=[];fontSize=18;fontFamily=Comic Sans MS;" parent="OR6rUnb_s0b04Rcv2Hfu-72" vertex="1" connectable="0">
          <mxGeometry x="-0.3714" y="-3" relative="1" as="geometry">
            <mxPoint x="8" y="-3" as="offset" />
          </mxGeometry>
        </mxCell>
        <mxCell id="OR6rUnb_s0b04Rcv2Hfu-74" value="Schedule" style="rounded=1;whiteSpace=wrap;html=1;shadow=0;sketch=1;fontFamily=Comic Sans MS;fontSize=18;strokeWidth=2;verticalAlign=middle;strokeColor=#82b366;fillColor=#d5e8d4;glass=0;" parent="1" vertex="1">
          <mxGeometry x="-3540" y="695" width="120" height="50" as="geometry" />
        </mxCell>
        <mxCell id="OR6rUnb_s0b04Rcv2Hfu-75" style="edgeStyle=orthogonalEdgeStyle;curved=1;sketch=1;orthogonalLoop=1;jettySize=auto;html=1;shadow=0;fontFamily=Comic Sans MS;fontSize=18;strokeColor=#000000;strokeWidth=2;entryX=0;entryY=0.5;entryDx=0;entryDy=0;" parent="1" source="OR6rUnb_s0b04Rcv2Hfu-76" target="OR6rUnb_s0b04Rcv2Hfu-88" edge="1">
          <mxGeometry relative="1" as="geometry">
            <mxPoint x="-2919" y="720" as="targetPoint" />
          </mxGeometry>
        </mxCell>
        <mxCell id="OR6rUnb_s0b04Rcv2Hfu-76" value="taskQueue" style="rounded=1;whiteSpace=wrap;html=1;shadow=0;glass=0;sketch=1;fontFamily=Comic Sans MS;fontSize=18;strokeWidth=2;fillColor=#ffffff;gradientColor=none;verticalAlign=top;labelPosition=center;verticalLabelPosition=middle;align=center;movable=1;resizable=1;rotatable=1;deletable=1;editable=1;connectable=1;" parent="1" vertex="1">
          <mxGeometry x="-3329" y="670" width="320" height="100" as="geometry" />
        </mxCell>
        <mxCell id="OR6rUnb_s0b04Rcv2Hfu-77" value="task1" style="rounded=1;whiteSpace=wrap;html=1;shadow=0;sketch=1;fontFamily=Comic Sans MS;fontSize=18;strokeWidth=2;verticalAlign=middle;strokeColor=#6c8ebf;fillColor=#dae8fc;glass=0;" parent="1" vertex="1">
          <mxGeometry x="-3309" y="705" width="80" height="50" as="geometry" />
        </mxCell>
        <mxCell id="OR6rUnb_s0b04Rcv2Hfu-78" value="task2" style="rounded=1;whiteSpace=wrap;html=1;shadow=0;sketch=1;fontFamily=Comic Sans MS;fontSize=18;strokeWidth=2;verticalAlign=middle;strokeColor=#6c8ebf;fillColor=#dae8fc;glass=0;" parent="1" vertex="1">
          <mxGeometry x="-3209" y="705" width="80" height="50" as="geometry" />
        </mxCell>
        <mxCell id="OR6rUnb_s0b04Rcv2Hfu-79" value="task3" style="rounded=1;whiteSpace=wrap;html=1;shadow=0;sketch=1;fontFamily=Comic Sans MS;fontSize=18;strokeWidth=2;verticalAlign=middle;strokeColor=#6c8ebf;fillColor=#dae8fc;glass=0;" parent="1" vertex="1">
          <mxGeometry x="-3109" y="705" width="80" height="50" as="geometry" />
        </mxCell>
        <mxCell id="OR6rUnb_s0b04Rcv2Hfu-80" value="" style="group;rotation=0;" parent="1" vertex="1" connectable="0">
          <mxGeometry x="-2901" y="850" width="167" height="160" as="geometry" />
        </mxCell>
        <mxCell id="OR6rUnb_s0b04Rcv2Hfu-81" value="workLoop" style="ellipse;whiteSpace=wrap;html=1;aspect=fixed;rounded=1;shadow=0;glass=0;sketch=1;fontFamily=Comic Sans MS;fontSize=18;strokeWidth=2;fillColor=#ffffff;gradientColor=none;verticalAlign=top;" parent="OR6rUnb_s0b04Rcv2Hfu-80" vertex="1">
          <mxGeometry x="3" width="160" height="160" as="geometry" />
        </mxCell>
        <mxCell id="OR6rUnb_s0b04Rcv2Hfu-82" value="" style="endArrow=classic;html=1;shadow=0;fontFamily=Comic Sans MS;fontSize=18;strokeWidth=2;sketch=1;entryX=1.006;entryY=0.686;entryDx=0;entryDy=0;entryPerimeter=0;" parent="OR6rUnb_s0b04Rcv2Hfu-80" edge="1">
          <mxGeometry x="85" y="40" width="50" height="50" as="geometry">
            <mxPoint x="167" y="73.75999999999999" as="sourcePoint" />
            <mxPoint x="167.4799999999998" y="91.88000000000011" as="targetPoint" />
            <Array as="points">
              <mxPoint x="167" y="74" />
            </Array>
          </mxGeometry>
        </mxCell>
        <mxCell id="OR6rUnb_s0b04Rcv2Hfu-83" value="" style="endArrow=classic;html=1;shadow=0;fontFamily=Comic Sans MS;fontSize=18;strokeWidth=2;sketch=1;entryX=1.006;entryY=0.686;entryDx=0;entryDy=0;entryPerimeter=0;" parent="OR6rUnb_s0b04Rcv2Hfu-80" edge="1">
          <mxGeometry y="41" width="50" height="50" as="geometry">
            <mxPoint x="0.4799999999997908" y="87.88000000000011" as="sourcePoint" />
            <mxPoint y="69.75999999999999" as="targetPoint" />
            <Array as="points">
              <mxPoint y="70" />
            </Array>
          </mxGeometry>
        </mxCell>
        <mxCell id="OR6rUnb_s0b04Rcv2Hfu-84" value="execute" style="rounded=1;whiteSpace=wrap;html=1;shadow=0;sketch=1;fontFamily=Comic Sans MS;fontSize=12;strokeWidth=2;verticalAlign=middle;strokeColor=#82b366;fillColor=#d5e8d4;glass=0;align=center;labelBorderColor=none;" parent="OR6rUnb_s0b04Rcv2Hfu-80" vertex="1">
          <mxGeometry x="20.25" y="90" width="126.5" height="30" as="geometry" />
        </mxCell>
        <mxCell id="OR6rUnb_s0b04Rcv2Hfu-85" style="edgeStyle=orthogonalEdgeStyle;curved=1;sketch=1;orthogonalLoop=1;jettySize=auto;html=1;entryX=0.5;entryY=0;entryDx=0;entryDy=0;shadow=0;fontFamily=Comic Sans MS;fontSize=12;strokeColor=#000000;strokeWidth=2;" parent="OR6rUnb_s0b04Rcv2Hfu-80" source="OR6rUnb_s0b04Rcv2Hfu-87" target="OR6rUnb_s0b04Rcv2Hfu-84" edge="1">
          <mxGeometry relative="1" as="geometry" />
        </mxCell>
        <mxCell id="OR6rUnb_s0b04Rcv2Hfu-86" value="" style="edgeStyle=orthogonalEdgeStyle;curved=1;sketch=1;orthogonalLoop=1;jettySize=auto;html=1;shadow=0;fontFamily=Comic Sans MS;fontSize=12;strokeColor=#000000;strokeWidth=2;" parent="OR6rUnb_s0b04Rcv2Hfu-80" source="OR6rUnb_s0b04Rcv2Hfu-87" target="OR6rUnb_s0b04Rcv2Hfu-84" edge="1">
          <mxGeometry relative="1" as="geometry" />
        </mxCell>
        <mxCell id="OR6rUnb_s0b04Rcv2Hfu-87" value="peek(取出最高优任务)" style="rounded=1;whiteSpace=wrap;html=1;shadow=0;sketch=1;fontFamily=Comic Sans MS;fontSize=12;strokeWidth=2;verticalAlign=middle;strokeColor=#82b366;fillColor=#d5e8d4;glass=0;" parent="OR6rUnb_s0b04Rcv2Hfu-80" vertex="1">
          <mxGeometry x="20.25" y="40" width="126.5" height="30" as="geometry" />
        </mxCell>
        <mxCell id="OR6rUnb_s0b04Rcv2Hfu-89" style="edgeStyle=orthogonalEdgeStyle;curved=1;sketch=1;orthogonalLoop=1;jettySize=auto;html=1;shadow=0;fontFamily=Comic Sans MS;fontSize=12;strokeColor=#000000;strokeWidth=2;" parent="1" source="OR6rUnb_s0b04Rcv2Hfu-88" edge="1">
          <mxGeometry relative="1" as="geometry">
            <mxPoint x="-2820" y="850" as="targetPoint" />
          </mxGeometry>
        </mxCell>
        <mxCell id="OR6rUnb_s0b04Rcv2Hfu-90" value="延迟调用" style="edgeLabel;html=1;align=center;verticalAlign=middle;resizable=0;points=[];fontSize=12;fontFamily=Comic Sans MS;" parent="OR6rUnb_s0b04Rcv2Hfu-89" vertex="1" connectable="0">
          <mxGeometry x="-0.048" relative="1" as="geometry">
            <mxPoint x="1" as="offset" />
          </mxGeometry>
        </mxCell>
        <mxCell id="OR6rUnb_s0b04Rcv2Hfu-88" value="scheduleWorkLoop" style="rounded=1;whiteSpace=wrap;html=1;shadow=0;sketch=1;fontFamily=Comic Sans MS;fontSize=18;strokeWidth=2;verticalAlign=middle;strokeColor=#82b366;fillColor=#d5e8d4;glass=0;" parent="1" vertex="1">
          <mxGeometry x="-2936" y="695" width="231" height="50" as="geometry" />
        </mxCell>
        <mxCell id="OR6rUnb_s0b04Rcv2Hfu-113" style="edgeStyle=orthogonalEdgeStyle;curved=1;rounded=0;sketch=1;orthogonalLoop=1;jettySize=auto;html=1;shadow=0;fontFamily=Comic Sans MS;fontSize=18;strokeWidth=2;entryX=0.039;entryY=0.52;entryDx=0;entryDy=0;entryPerimeter=0;" parent="1" source="OR6rUnb_s0b04Rcv2Hfu-115" target="OR6rUnb_s0b04Rcv2Hfu-152" edge="1">
          <mxGeometry relative="1" as="geometry" />
        </mxCell>
        <mxCell id="OR6rUnb_s0b04Rcv2Hfu-114" value="push" style="edgeLabel;html=1;align=center;verticalAlign=middle;resizable=0;points=[];fontSize=18;fontFamily=Comic Sans MS;" parent="OR6rUnb_s0b04Rcv2Hfu-113" vertex="1" connectable="0">
          <mxGeometry x="-0.3714" y="-3" relative="1" as="geometry">
            <mxPoint x="19" y="-3" as="offset" />
          </mxGeometry>
        </mxCell>
        <mxCell id="OR6rUnb_s0b04Rcv2Hfu-115" value="ScheduleCallback" style="rounded=1;whiteSpace=wrap;html=1;shadow=0;sketch=1;fontFamily=Comic Sans MS;fontSize=18;strokeWidth=2;verticalAlign=middle;strokeColor=#82b366;fillColor=#d5e8d4;glass=0;" parent="1" vertex="1">
          <mxGeometry x="-2040" y="43" width="170" height="50" as="geometry" />
        </mxCell>
        <mxCell id="OR6rUnb_s0b04Rcv2Hfu-136" value="&lt;font style=&quot;font-size: 16px&quot;&gt;taskQueue（立即执行任务队列）&lt;/font&gt;" style="rounded=1;whiteSpace=wrap;html=1;shadow=0;glass=0;sketch=1;fontFamily=Comic Sans MS;fontSize=18;strokeWidth=2;verticalAlign=top;labelPosition=center;verticalLabelPosition=middle;align=center;movable=1;resizable=1;rotatable=1;deletable=1;editable=1;connectable=1;" parent="1" vertex="1">
          <mxGeometry x="-1560" y="-50" width="320" height="100" as="geometry" />
        </mxCell>
        <mxCell id="OR6rUnb_s0b04Rcv2Hfu-137" value="task1" style="rounded=1;whiteSpace=wrap;html=1;shadow=0;sketch=1;fontFamily=Comic Sans MS;fontSize=18;strokeWidth=2;verticalAlign=middle;strokeColor=#6c8ebf;fillColor=#dae8fc;glass=0;" parent="1" vertex="1">
          <mxGeometry x="-1540" y="-15" width="80" height="50" as="geometry" />
        </mxCell>
        <mxCell id="OR6rUnb_s0b04Rcv2Hfu-138" value="task2" style="rounded=1;whiteSpace=wrap;html=1;shadow=0;sketch=1;fontFamily=Comic Sans MS;fontSize=18;strokeWidth=2;verticalAlign=middle;strokeColor=#6c8ebf;fillColor=#dae8fc;glass=0;" parent="1" vertex="1">
          <mxGeometry x="-1440" y="-15" width="80" height="50" as="geometry" />
        </mxCell>
        <mxCell id="OR6rUnb_s0b04Rcv2Hfu-139" value="task3" style="rounded=1;whiteSpace=wrap;html=1;shadow=0;sketch=1;fontFamily=Comic Sans MS;fontSize=18;strokeWidth=2;verticalAlign=middle;strokeColor=#6c8ebf;fillColor=#dae8fc;glass=0;" parent="1" vertex="1">
          <mxGeometry x="-1340" y="-15" width="80" height="50" as="geometry" />
        </mxCell>
        <mxCell id="OR6rUnb_s0b04Rcv2Hfu-142" value="&lt;span style=&quot;color: rgb(51 , 51 , 51)&quot;&gt;&lt;font style=&quot;font-size: 11px&quot;&gt;优先级按照 expirationTime 排序&amp;nbsp;&lt;/font&gt;&lt;/span&gt;" style="shape=callout;whiteSpace=wrap;html=1;perimeter=calloutPerimeter;rounded=1;shadow=0;glass=0;sketch=1;fontFamily=Comic Sans MS;fontSize=12;strokeWidth=1;fillColor=#eeeeee;align=center;verticalAlign=top;strokeColor=#36393d;position2=0;" parent="1" vertex="1">
          <mxGeometry x="-1225" y="-80" width="110" height="80" as="geometry" />
        </mxCell>
        <mxCell id="OR6rUnb_s0b04Rcv2Hfu-143" value="&lt;font style=&quot;font-size: 16px&quot;&gt;timerQueue（延迟任务队列）&lt;/font&gt;" style="rounded=1;whiteSpace=wrap;html=1;shadow=0;glass=0;sketch=1;fontFamily=Comic Sans MS;fontSize=18;strokeWidth=2;verticalAlign=top;labelPosition=center;verticalLabelPosition=middle;align=center;movable=1;resizable=1;rotatable=1;deletable=1;editable=1;connectable=1;" parent="1" vertex="1">
          <mxGeometry x="-1560" y="80" width="320" height="100" as="geometry" />
        </mxCell>
        <mxCell id="OR6rUnb_s0b04Rcv2Hfu-144" value="task2" style="rounded=1;whiteSpace=wrap;html=1;shadow=0;sketch=1;fontFamily=Comic Sans MS;fontSize=18;strokeWidth=2;verticalAlign=middle;strokeColor=#9673a6;fillColor=#e1d5e7;glass=0;" parent="1" vertex="1">
          <mxGeometry x="-1440" y="115" width="80" height="50" as="geometry" />
        </mxCell>
        <mxCell id="OR6rUnb_s0b04Rcv2Hfu-145" value="task3" style="rounded=1;whiteSpace=wrap;html=1;shadow=0;sketch=1;fontFamily=Comic Sans MS;fontSize=18;strokeWidth=2;verticalAlign=middle;strokeColor=#9673a6;fillColor=#e1d5e7;glass=0;" parent="1" vertex="1">
          <mxGeometry x="-1340" y="115" width="80" height="50" as="geometry" />
        </mxCell>
        <mxCell id="OR6rUnb_s0b04Rcv2Hfu-146" value="task1" style="rounded=1;whiteSpace=wrap;html=1;shadow=0;sketch=1;fontFamily=Comic Sans MS;fontSize=18;strokeWidth=2;verticalAlign=middle;strokeColor=#9673a6;fillColor=#e1d5e7;glass=0;" parent="1" vertex="1">
          <mxGeometry x="-1540" y="115" width="80" height="50" as="geometry" />
        </mxCell>
        <mxCell id="OR6rUnb_s0b04Rcv2Hfu-149" value="&lt;font color=&quot;#333333&quot;&gt;&lt;span style=&quot;font-size: 11px&quot;&gt;优先级按照 startTime 排序&lt;/span&gt;&lt;/font&gt;" style="shape=callout;whiteSpace=wrap;html=1;perimeter=calloutPerimeter;rounded=1;shadow=0;glass=0;sketch=1;fontFamily=Comic Sans MS;fontSize=12;strokeWidth=1;fillColor=#eeeeee;align=center;verticalAlign=top;strokeColor=#36393d;position2=0;" parent="1" vertex="1">
          <mxGeometry x="-1230" y="66" width="110" height="80" as="geometry" />
        </mxCell>
        <mxCell id="OR6rUnb_s0b04Rcv2Hfu-153" style="edgeStyle=orthogonalEdgeStyle;curved=1;sketch=1;orthogonalLoop=1;jettySize=auto;html=1;entryX=0;entryY=0.5;entryDx=0;entryDy=0;shadow=0;fontFamily=Comic Sans MS;fontSize=12;strokeColor=#000000;strokeWidth=2;exitX=0.5;exitY=0;exitDx=0;exitDy=0;" parent="1" source="OR6rUnb_s0b04Rcv2Hfu-152" target="OR6rUnb_s0b04Rcv2Hfu-136" edge="1">
          <mxGeometry relative="1" as="geometry" />
        </mxCell>
        <mxCell id="OR6rUnb_s0b04Rcv2Hfu-155" value="No" style="edgeLabel;html=1;align=center;verticalAlign=middle;resizable=0;points=[];fontSize=12;fontFamily=Comic Sans MS;" parent="OR6rUnb_s0b04Rcv2Hfu-153" vertex="1" connectable="0">
          <mxGeometry x="-0.1148" y="-3" relative="1" as="geometry">
            <mxPoint as="offset" />
          </mxGeometry>
        </mxCell>
        <mxCell id="OR6rUnb_s0b04Rcv2Hfu-154" style="edgeStyle=orthogonalEdgeStyle;curved=1;sketch=1;orthogonalLoop=1;jettySize=auto;html=1;entryX=-0.002;entryY=0.549;entryDx=0;entryDy=0;entryPerimeter=0;shadow=0;fontFamily=Comic Sans MS;fontSize=12;strokeColor=#000000;strokeWidth=2;exitX=0.5;exitY=1;exitDx=0;exitDy=0;" parent="1" source="OR6rUnb_s0b04Rcv2Hfu-152" target="OR6rUnb_s0b04Rcv2Hfu-143" edge="1">
          <mxGeometry relative="1" as="geometry" />
        </mxCell>
        <mxCell id="OR6rUnb_s0b04Rcv2Hfu-156" value="Yes" style="edgeLabel;html=1;align=center;verticalAlign=middle;resizable=0;points=[];fontSize=12;fontFamily=Comic Sans MS;" parent="OR6rUnb_s0b04Rcv2Hfu-154" vertex="1" connectable="0">
          <mxGeometry x="0.0389" y="3" relative="1" as="geometry">
            <mxPoint as="offset" />
          </mxGeometry>
        </mxCell>
        <mxCell id="OR6rUnb_s0b04Rcv2Hfu-152" value="&lt;span style=&quot;text-align: left&quot;&gt;是否是延迟任务&lt;/span&gt;" style="rhombus;whiteSpace=wrap;html=1;rounded=1;shadow=0;glass=0;sketch=1;fontFamily=Comic Sans MS;fontSize=12;strokeWidth=2;fillColor=none;gradientColor=none;align=center;verticalAlign=middle;" parent="1" vertex="1">
          <mxGeometry x="-1730" y="30" width="150" height="80" as="geometry" />
        </mxCell>
        <mxCell id="OR6rUnb_s0b04Rcv2Hfu-173" style="edgeStyle=orthogonalEdgeStyle;curved=1;sketch=1;orthogonalLoop=1;jettySize=auto;html=1;entryX=0.5;entryY=0;entryDx=0;entryDy=0;shadow=0;fontFamily=Comic Sans MS;fontSize=12;strokeColor=#000000;strokeWidth=2;" parent="1" source="OR6rUnb_s0b04Rcv2Hfu-158" target="OR6rUnb_s0b04Rcv2Hfu-163" edge="1">
          <mxGeometry relative="1" as="geometry" />
        </mxCell>
        <mxCell id="OR6rUnb_s0b04Rcv2Hfu-158" value="requestHostTimeout" style="rounded=1;whiteSpace=wrap;html=1;shadow=0;sketch=1;fontFamily=Comic Sans MS;fontSize=18;strokeWidth=2;verticalAlign=middle;strokeColor=#82b366;fillColor=#d5e8d4;glass=0;" parent="1" vertex="1">
          <mxGeometry x="-1693" y="390" width="231" height="50" as="geometry" />
        </mxCell>
        <mxCell id="OR6rUnb_s0b04Rcv2Hfu-179" style="edgeStyle=orthogonalEdgeStyle;curved=1;sketch=1;orthogonalLoop=1;jettySize=auto;html=1;entryX=0.5;entryY=0;entryDx=0;entryDy=0;shadow=0;fontFamily=Comic Sans MS;fontSize=12;strokeColor=#000000;strokeWidth=2;" parent="1" source="OR6rUnb_s0b04Rcv2Hfu-160" target="OR6rUnb_s0b04Rcv2Hfu-176" edge="1">
          <mxGeometry relative="1" as="geometry" />
        </mxCell>
        <mxCell id="OR6rUnb_s0b04Rcv2Hfu-160" value="requestHostCallback" style="rounded=1;whiteSpace=wrap;html=1;shadow=0;sketch=1;fontFamily=Comic Sans MS;fontSize=18;strokeWidth=2;verticalAlign=middle;strokeColor=#82b366;fillColor=#d5e8d4;glass=0;" parent="1" vertex="1">
          <mxGeometry x="-1260" y="530" width="231" height="50" as="geometry" />
        </mxCell>
        <mxCell id="OR6rUnb_s0b04Rcv2Hfu-174" style="edgeStyle=orthogonalEdgeStyle;curved=1;sketch=1;orthogonalLoop=1;jettySize=auto;html=1;entryX=0;entryY=0.5;entryDx=0;entryDy=0;shadow=0;fontFamily=Comic Sans MS;fontSize=12;strokeColor=#000000;strokeWidth=2;" parent="1" source="OR6rUnb_s0b04Rcv2Hfu-163" target="OR6rUnb_s0b04Rcv2Hfu-160" edge="1">
          <mxGeometry relative="1" as="geometry" />
        </mxCell>
        <mxCell id="OR6rUnb_s0b04Rcv2Hfu-175" value="当&lt;span style=&quot;text-align: left&quot;&gt;存在立即执行任务后&lt;/span&gt;" style="edgeLabel;html=1;align=center;verticalAlign=middle;resizable=0;points=[];fontSize=12;fontFamily=Comic Sans MS;" parent="OR6rUnb_s0b04Rcv2Hfu-174" vertex="1" connectable="0">
          <mxGeometry x="-0.0656" y="1" relative="1" as="geometry">
            <mxPoint as="offset" />
          </mxGeometry>
        </mxCell>
        <mxCell id="OR6rUnb_s0b04Rcv2Hfu-163" value="advanceTimers" style="rounded=1;whiteSpace=wrap;html=1;shadow=0;sketch=1;fontFamily=Comic Sans MS;fontSize=18;strokeWidth=2;verticalAlign=middle;strokeColor=#82b366;fillColor=#d5e8d4;glass=0;" parent="1" vertex="1">
          <mxGeometry x="-1693" y="530" width="231" height="50" as="geometry" />
        </mxCell>
        <mxCell id="OR6rUnb_s0b04Rcv2Hfu-169" style="edgeStyle=orthogonalEdgeStyle;curved=1;sketch=1;orthogonalLoop=1;jettySize=auto;html=1;shadow=0;fontFamily=Comic Sans MS;fontSize=12;strokeColor=#000000;strokeWidth=2;exitX=0;exitY=0.5;exitDx=0;exitDy=0;" parent="1" source="OR6rUnb_s0b04Rcv2Hfu-164" target="OR6rUnb_s0b04Rcv2Hfu-158" edge="1">
          <mxGeometry relative="1" as="geometry">
            <mxPoint x="-1502" y="300" as="sourcePoint" />
          </mxGeometry>
        </mxCell>
        <mxCell id="OR6rUnb_s0b04Rcv2Hfu-171" value="No" style="edgeLabel;html=1;align=center;verticalAlign=middle;resizable=0;points=[];fontSize=12;fontFamily=Comic Sans MS;" parent="OR6rUnb_s0b04Rcv2Hfu-169" vertex="1" connectable="0">
          <mxGeometry x="0.1181" y="2" relative="1" as="geometry">
            <mxPoint as="offset" />
          </mxGeometry>
        </mxCell>
        <mxCell id="OR6rUnb_s0b04Rcv2Hfu-170" style="edgeStyle=orthogonalEdgeStyle;curved=1;sketch=1;orthogonalLoop=1;jettySize=auto;html=1;shadow=0;fontFamily=Comic Sans MS;fontSize=12;strokeColor=#000000;strokeWidth=2;exitX=1;exitY=0.5;exitDx=0;exitDy=0;" parent="1" source="OR6rUnb_s0b04Rcv2Hfu-164" target="OR6rUnb_s0b04Rcv2Hfu-160" edge="1">
          <mxGeometry relative="1" as="geometry" />
        </mxCell>
        <mxCell id="OR6rUnb_s0b04Rcv2Hfu-172" value="Yes" style="edgeLabel;html=1;align=center;verticalAlign=middle;resizable=0;points=[];fontSize=12;fontFamily=Comic Sans MS;" parent="OR6rUnb_s0b04Rcv2Hfu-170" vertex="1" connectable="0">
          <mxGeometry x="-0.3814" y="-46" relative="1" as="geometry">
            <mxPoint as="offset" />
          </mxGeometry>
        </mxCell>
        <mxCell id="OR6rUnb_s0b04Rcv2Hfu-164" value="&lt;span style=&quot;text-align: left&quot;&gt;是否存在立即执行任务&lt;/span&gt;" style="rhombus;whiteSpace=wrap;html=1;rounded=1;shadow=0;glass=0;sketch=1;fontFamily=Comic Sans MS;fontSize=12;strokeWidth=2;fillColor=none;gradientColor=none;align=center;verticalAlign=middle;" parent="1" vertex="1">
          <mxGeometry x="-1480" y="260" width="150" height="80" as="geometry" />
        </mxCell>
        <mxCell id="OR6rUnb_s0b04Rcv2Hfu-165" value="&lt;font color=&quot;#333333&quot;&gt;&lt;span style=&quot;font-size: 11px&quot;&gt;使用 timeout 延迟，之后再次检查任务情况&lt;/span&gt;&lt;/font&gt;" style="shape=callout;whiteSpace=wrap;html=1;perimeter=calloutPerimeter;rounded=1;shadow=0;glass=0;sketch=1;fontFamily=Comic Sans MS;fontSize=12;strokeWidth=1;fillColor=#eeeeee;align=center;verticalAlign=top;strokeColor=#36393d;position2=0.86;" parent="1" vertex="1">
          <mxGeometry x="-1777" y="310" width="110" height="80" as="geometry" />
        </mxCell>
        <mxCell id="OR6rUnb_s0b04Rcv2Hfu-166" value="&lt;font color=&quot;#333333&quot;&gt;&lt;span style=&quot;font-size: 11px&quot;&gt;将所有到期的延迟任务移动到 taskQueue中&lt;/span&gt;&lt;/font&gt;" style="shape=callout;whiteSpace=wrap;html=1;perimeter=calloutPerimeter;rounded=1;shadow=0;glass=0;sketch=1;fontFamily=Comic Sans MS;fontSize=12;strokeWidth=1;fillColor=#eeeeee;align=center;verticalAlign=top;strokeColor=#36393d;position2=1;" parent="1" vertex="1">
          <mxGeometry x="-1812" y="460" width="110" height="80" as="geometry" />
        </mxCell>
        <mxCell id="OR6rUnb_s0b04Rcv2Hfu-180" style="edgeStyle=orthogonalEdgeStyle;curved=1;sketch=1;orthogonalLoop=1;jettySize=auto;html=1;entryX=0.5;entryY=0;entryDx=0;entryDy=0;shadow=0;fontFamily=Comic Sans MS;fontSize=12;strokeColor=#000000;strokeWidth=2;" parent="1" source="OR6rUnb_s0b04Rcv2Hfu-176" target="OR6rUnb_s0b04Rcv2Hfu-178" edge="1">
          <mxGeometry relative="1" as="geometry" />
        </mxCell>
        <mxCell id="OR6rUnb_s0b04Rcv2Hfu-176" value="schedulePerformWorkUntilDeadline" style="rounded=1;whiteSpace=wrap;html=1;shadow=0;sketch=1;fontFamily=Comic Sans MS;fontSize=18;strokeWidth=2;verticalAlign=middle;strokeColor=#b85450;fillColor=#f8cecc;glass=0;" parent="1" vertex="1">
          <mxGeometry x="-1329.5" y="650" width="370" height="50" as="geometry" />
        </mxCell>
        <mxCell id="OR6rUnb_s0b04Rcv2Hfu-177" value="&lt;font color=&quot;#333333&quot;&gt;&lt;span style=&quot;font-size: 11px&quot;&gt;通过宏任务延迟调用 performWorkUntilDeadline&lt;/span&gt;&lt;/font&gt;" style="shape=callout;whiteSpace=wrap;html=1;perimeter=calloutPerimeter;rounded=1;shadow=0;glass=0;sketch=1;fontFamily=Comic Sans MS;fontSize=12;strokeWidth=1;fillColor=#eeeeee;align=center;verticalAlign=top;strokeColor=#36393d;position2=0.91;" parent="1" vertex="1">
          <mxGeometry x="-1494" y="600" width="164" height="80" as="geometry" />
        </mxCell>
        <mxCell id="OR6rUnb_s0b04Rcv2Hfu-197" style="edgeStyle=orthogonalEdgeStyle;curved=1;sketch=1;orthogonalLoop=1;jettySize=auto;html=1;shadow=0;fontFamily=Comic Sans MS;fontSize=1;endArrow=open;endFill=0;strokeColor=#000000;strokeWidth=2;entryX=0.5;entryY=0;entryDx=0;entryDy=0;" parent="1" source="OR6rUnb_s0b04Rcv2Hfu-178" target="OR6rUnb_s0b04Rcv2Hfu-190" edge="1">
          <mxGeometry relative="1" as="geometry" />
        </mxCell>
        <mxCell id="OR6rUnb_s0b04Rcv2Hfu-178" value="&lt;span style=&quot;color: rgb(51 , 51 , 51)&quot;&gt;&lt;font style=&quot;font-size: 18px&quot;&gt;performWorkUntilDeadline&lt;/font&gt;&lt;/span&gt;" style="rounded=1;whiteSpace=wrap;html=1;shadow=0;sketch=1;fontFamily=Comic Sans MS;fontSize=18;strokeWidth=2;verticalAlign=middle;strokeColor=#b85450;fillColor=#f8cecc;glass=0;" parent="1" vertex="1">
          <mxGeometry x="-1330" y="762" width="370" height="50" as="geometry" />
        </mxCell>
        <mxCell id="OR6rUnb_s0b04Rcv2Hfu-184" value="" style="endArrow=open;html=1;shadow=0;fontFamily=Comic Sans MS;fontSize=18;strokeWidth=4;sketch=1;entryX=1.006;entryY=0.686;entryDx=0;entryDy=0;entryPerimeter=0;endFill=0;" parent="1" edge="1">
          <mxGeometry x="-1307.29" y="948.8850000000002" width="109.37724550898204" height="106.25" as="geometry">
            <mxPoint x="-1307.29" y="1030" as="sourcePoint" />
            <mxPoint x="-1307.29" y="1010" as="targetPoint" />
            <Array as="points">
              <mxPoint x="-1307.29" y="1010.5100000000002" />
            </Array>
          </mxGeometry>
        </mxCell>
        <mxCell id="OR6rUnb_s0b04Rcv2Hfu-185" value="execute" style="rounded=1;whiteSpace=wrap;html=1;shadow=0;sketch=1;fontFamily=Comic Sans MS;fontSize=12;strokeWidth=2;verticalAlign=middle;strokeColor=#82b366;fillColor=#d5e8d4;glass=0;align=center;labelBorderColor=none;" parent="1" vertex="1">
          <mxGeometry x="-1246.0022155688623" y="1070" width="200" height="40" as="geometry" />
        </mxCell>
        <mxCell id="OR6rUnb_s0b04Rcv2Hfu-186" style="edgeStyle=orthogonalEdgeStyle;curved=1;sketch=1;orthogonalLoop=1;jettySize=auto;html=1;entryX=0.5;entryY=0;entryDx=0;entryDy=0;shadow=0;fontFamily=Comic Sans MS;fontSize=12;strokeColor=#000000;strokeWidth=2;" parent="1" source="OR6rUnb_s0b04Rcv2Hfu-188" target="OR6rUnb_s0b04Rcv2Hfu-185" edge="1">
          <mxGeometry x="-1237.34" y="863" as="geometry" />
        </mxCell>
        <mxCell id="OR6rUnb_s0b04Rcv2Hfu-187" value="" style="edgeStyle=orthogonalEdgeStyle;curved=1;sketch=1;orthogonalLoop=1;jettySize=auto;html=1;shadow=0;fontFamily=Comic Sans MS;fontSize=12;strokeColor=#000000;strokeWidth=2;" parent="1" source="OR6rUnb_s0b04Rcv2Hfu-188" target="OR6rUnb_s0b04Rcv2Hfu-185" edge="1">
          <mxGeometry x="-1237.34" y="863" as="geometry" />
        </mxCell>
        <mxCell id="OR6rUnb_s0b04Rcv2Hfu-188" value="peek" style="rounded=1;whiteSpace=wrap;html=1;shadow=0;sketch=1;fontFamily=Comic Sans MS;fontSize=12;strokeWidth=2;verticalAlign=middle;strokeColor=#82b366;fillColor=#d5e8d4;glass=0;" parent="1" vertex="1">
          <mxGeometry x="-1245.32" y="1000" width="200" height="40" as="geometry" />
        </mxCell>
        <mxCell id="OR6rUnb_s0b04Rcv2Hfu-198" style="edgeStyle=orthogonalEdgeStyle;curved=1;sketch=1;orthogonalLoop=1;jettySize=auto;html=1;shadow=0;fontFamily=Comic Sans MS;fontSize=1;endArrow=open;endFill=0;strokeColor=#000000;strokeWidth=2;" parent="1" source="OR6rUnb_s0b04Rcv2Hfu-190" target="OR6rUnb_s0b04Rcv2Hfu-188" edge="1">
          <mxGeometry relative="1" as="geometry" />
        </mxCell>
        <mxCell id="OR6rUnb_s0b04Rcv2Hfu-201" value="&lt;font style=&quot;font-size: 12px&quot;&gt;No&lt;/font&gt;" style="edgeLabel;html=1;align=center;verticalAlign=middle;resizable=0;points=[];fontSize=1;fontFamily=Comic Sans MS;" parent="OR6rUnb_s0b04Rcv2Hfu-198" vertex="1" connectable="0">
          <mxGeometry x="-0.3496" y="-1" relative="1" as="geometry">
            <mxPoint as="offset" />
          </mxGeometry>
        </mxCell>
        <mxCell id="OR6rUnb_s0b04Rcv2Hfu-205" style="edgeStyle=orthogonalEdgeStyle;curved=1;sketch=1;orthogonalLoop=1;jettySize=auto;html=1;entryX=0;entryY=0.5;entryDx=0;entryDy=0;shadow=0;fontFamily=Comic Sans MS;fontSize=1;endArrow=open;endFill=0;strokeColor=#000000;strokeWidth=2;exitX=1.001;exitY=0.473;exitDx=0;exitDy=0;exitPerimeter=0;" parent="1" source="OR6rUnb_s0b04Rcv2Hfu-225" target="OR6rUnb_s0b04Rcv2Hfu-202" edge="1">
          <mxGeometry relative="1" as="geometry" />
        </mxCell>
        <mxCell id="OR6rUnb_s0b04Rcv2Hfu-206" value="Text" style="edgeLabel;html=1;align=center;verticalAlign=middle;resizable=0;points=[];fontSize=1;fontFamily=Comic Sans MS;" parent="OR6rUnb_s0b04Rcv2Hfu-205" vertex="1" connectable="0">
          <mxGeometry x="0.2645" y="-14" relative="1" as="geometry">
            <mxPoint as="offset" />
          </mxGeometry>
        </mxCell>
        <mxCell id="OR6rUnb_s0b04Rcv2Hfu-208" value="Yes" style="edgeLabel;html=1;align=center;verticalAlign=middle;resizable=0;points=[];fontSize=1;fontFamily=Comic Sans MS;" parent="OR6rUnb_s0b04Rcv2Hfu-205" vertex="1" connectable="0">
          <mxGeometry x="-0.0387" y="3" relative="1" as="geometry">
            <mxPoint as="offset" />
          </mxGeometry>
        </mxCell>
        <mxCell id="OR6rUnb_s0b04Rcv2Hfu-233" value="跳出 Loop" style="edgeLabel;html=1;align=center;verticalAlign=middle;resizable=0;points=[];fontSize=12;fontFamily=Comic Sans MS;" parent="OR6rUnb_s0b04Rcv2Hfu-205" vertex="1" connectable="0">
          <mxGeometry x="-0.144" y="-2" relative="1" as="geometry">
            <mxPoint x="4" y="-13" as="offset" />
          </mxGeometry>
        </mxCell>
        <mxCell id="OR6rUnb_s0b04Rcv2Hfu-232" style="edgeStyle=orthogonalEdgeStyle;sketch=1;orthogonalLoop=1;jettySize=auto;html=1;shadow=0;fontFamily=Comic Sans MS;fontSize=12;endArrow=open;endFill=0;strokeColor=#000000;strokeWidth=2;" parent="1" source="OR6rUnb_s0b04Rcv2Hfu-190" edge="1">
          <mxGeometry relative="1" as="geometry">
            <mxPoint x="-990" y="1010" as="targetPoint" />
            <Array as="points">
              <mxPoint x="-1030" y="920" />
              <mxPoint x="-1030" y="1010" />
            </Array>
          </mxGeometry>
        </mxCell>
        <mxCell id="OR6rUnb_s0b04Rcv2Hfu-234" value="Yes" style="edgeLabel;html=1;align=center;verticalAlign=middle;resizable=0;points=[];fontSize=12;fontFamily=Comic Sans MS;" parent="OR6rUnb_s0b04Rcv2Hfu-232" vertex="1" connectable="0">
          <mxGeometry x="-0.6942" y="-4" relative="1" as="geometry">
            <mxPoint as="offset" />
          </mxGeometry>
        </mxCell>
        <mxCell id="OR6rUnb_s0b04Rcv2Hfu-190" value="&lt;span style=&quot;text-align: left&quot;&gt;是否需要提前中断&lt;/span&gt;" style="rhombus;whiteSpace=wrap;html=1;rounded=1;shadow=0;glass=0;sketch=1;fontFamily=Comic Sans MS;fontSize=12;strokeWidth=2;fillColor=none;gradientColor=none;align=center;verticalAlign=middle;" parent="1" vertex="1">
          <mxGeometry x="-1220" y="880" width="150" height="80" as="geometry" />
        </mxCell>
        <mxCell id="OR6rUnb_s0b04Rcv2Hfu-194" value="" style="endArrow=open;html=1;shadow=0;fontFamily=Comic Sans MS;fontSize=18;strokeWidth=4;sketch=1;entryX=1.006;entryY=0.686;entryDx=0;entryDy=0;entryPerimeter=0;endFill=0;" parent="1" edge="1">
          <mxGeometry x="-985" y="966.8850000000002" width="109.37724550898204" height="106.25" as="geometry">
            <mxPoint x="-985" y="1028" as="sourcePoint" />
            <mxPoint x="-987" y="1048" as="targetPoint" />
            <Array as="points">
              <mxPoint x="-985" y="1028.5100000000002" />
            </Array>
          </mxGeometry>
        </mxCell>
        <mxCell id="OR6rUnb_s0b04Rcv2Hfu-216" style="edgeStyle=orthogonalEdgeStyle;curved=1;sketch=1;orthogonalLoop=1;jettySize=auto;html=1;shadow=0;fontFamily=Comic Sans MS;fontSize=1;endArrow=open;endFill=0;strokeColor=#000000;strokeWidth=2;entryX=0.5;entryY=0;entryDx=0;entryDy=0;exitX=0.5;exitY=0;exitDx=0;exitDy=0;" parent="1" source="OR6rUnb_s0b04Rcv2Hfu-202" target="OR6rUnb_s0b04Rcv2Hfu-164" edge="1">
          <mxGeometry relative="1" as="geometry">
            <mxPoint x="-1100" y="248" as="targetPoint" />
          </mxGeometry>
        </mxCell>
        <mxCell id="OR6rUnb_s0b04Rcv2Hfu-217" value="Text" style="edgeLabel;html=1;align=center;verticalAlign=middle;resizable=0;points=[];fontSize=1;fontFamily=Comic Sans MS;" parent="OR6rUnb_s0b04Rcv2Hfu-216" vertex="1" connectable="0">
          <mxGeometry x="-0.5455" y="17" relative="1" as="geometry">
            <mxPoint as="offset" />
          </mxGeometry>
        </mxCell>
        <mxCell id="OR6rUnb_s0b04Rcv2Hfu-218" value="Text" style="edgeLabel;html=1;align=center;verticalAlign=middle;resizable=0;points=[];fontSize=1;fontFamily=Comic Sans MS;" parent="OR6rUnb_s0b04Rcv2Hfu-216" vertex="1" connectable="0">
          <mxGeometry x="-0.5455" y="21" relative="1" as="geometry">
            <mxPoint as="offset" />
          </mxGeometry>
        </mxCell>
        <mxCell id="OR6rUnb_s0b04Rcv2Hfu-219" value="&lt;font style=&quot;font-size: 12px&quot;&gt;Yes&lt;/font&gt;" style="edgeLabel;html=1;align=center;verticalAlign=middle;resizable=0;points=[];fontSize=1;fontFamily=Comic Sans MS;" parent="OR6rUnb_s0b04Rcv2Hfu-216" vertex="1" connectable="0">
          <mxGeometry x="-0.5421" y="18" relative="1" as="geometry">
            <mxPoint as="offset" />
          </mxGeometry>
        </mxCell>
        <mxCell id="OR6rUnb_s0b04Rcv2Hfu-226" style="edgeStyle=orthogonalEdgeStyle;curved=1;sketch=1;orthogonalLoop=1;jettySize=auto;html=1;shadow=0;fontFamily=Comic Sans MS;fontSize=12;endArrow=open;endFill=0;strokeColor=#000000;strokeWidth=2;" parent="1" source="OR6rUnb_s0b04Rcv2Hfu-202" target="OR6rUnb_s0b04Rcv2Hfu-220" edge="1">
          <mxGeometry relative="1" as="geometry" />
        </mxCell>
        <mxCell id="OR6rUnb_s0b04Rcv2Hfu-227" value="No" style="edgeLabel;html=1;align=center;verticalAlign=middle;resizable=0;points=[];fontSize=12;fontFamily=Comic Sans MS;" parent="OR6rUnb_s0b04Rcv2Hfu-226" vertex="1" connectable="0">
          <mxGeometry x="-0.2647" y="2" relative="1" as="geometry">
            <mxPoint as="offset" />
          </mxGeometry>
        </mxCell>
        <mxCell id="OR6rUnb_s0b04Rcv2Hfu-202" value="&lt;span style=&quot;text-align: left&quot;&gt;是否还存在任务&lt;/span&gt;" style="rhombus;whiteSpace=wrap;html=1;rounded=1;shadow=0;glass=0;sketch=1;fontFamily=Comic Sans MS;fontSize=12;strokeWidth=2;fillColor=none;gradientColor=none;align=center;verticalAlign=middle;" parent="1" vertex="1">
          <mxGeometry x="-900" y="970" width="150" height="80" as="geometry" />
        </mxCell>
        <mxCell id="OR6rUnb_s0b04Rcv2Hfu-220" value="end" style="rounded=1;whiteSpace=wrap;html=1;shadow=0;sketch=1;fontFamily=Comic Sans MS;fontSize=12;strokeWidth=2;verticalAlign=middle;strokeColor=#666666;fillColor=#f5f5f5;glass=0;fontColor=#333333;" parent="1" vertex="1">
          <mxGeometry x="-895" y="1200" width="140" height="40" as="geometry" />
        </mxCell>
        <mxCell id="OR6rUnb_s0b04Rcv2Hfu-228" value="&lt;meta charset=&quot;utf-8&quot;&gt;&lt;span style=&quot;color: rgb(0, 0, 0); font-family: &amp;quot;comic sans ms&amp;quot;; font-size: 18px; font-style: normal; font-weight: 400; letter-spacing: normal; text-align: center; text-indent: 0px; text-transform: none; word-spacing: 0px; background-color: rgb(255, 255, 255); display: inline; float: none;&quot;&gt;workLoop&lt;/span&gt;" style="text;whiteSpace=wrap;html=1;fontSize=12;fontFamily=Comic Sans MS;" parent="1" vertex="1">
          <mxGeometry x="-1190" y="830" width="100" height="30" as="geometry" />
        </mxCell>
      </root>
    </mxGraphModel>
  </diagram>
  <diagram id="81FsVxypNZCS31xI5knb" name="Workflow">
    <mxGraphModel dx="2074" dy="1214" grid="1" gridSize="10" guides="1" tooltips="1" connect="1" arrows="1" fold="1" page="1" pageScale="1" pageWidth="827" pageHeight="1169" math="0" shadow="0">
      <root>
        <mxCell id="0" />
        <mxCell id="1" parent="0" />
      </root>
    </mxGraphModel>
  </diagram>
</mxfile>
